<?xml version="1.0" standalone="no"?>
<!DOCTYPE svg PUBLIC "-//W3C//DTD SVG 20010904//EN"
 "http://www.w3.org/TR/2001/REC-SVG-20010904/DTD/svg10.dtd">
<svg version="1.0" xmlns="http://www.w3.org/2000/svg"
 width="287.000000pt" height="287.000000pt" viewBox="0 0 287.000000 287.000000"
 preserveAspectRatio="xMidYMid meet">
<metadata>
Created by potrace 1.11, written by Peter Selinger 2001-2013
</metadata>
<g transform="translate(0.000000,287.000000) scale(0.100000,-0.100000)"
fill="#000000" stroke="none">
<path d="M1370 2701 c-50 -49 -90 -87 -90 -84 0 13 -281 -279 -290 -301 -7
-19 -14 -24 -27 -19 -10 3 -15 3 -11 -2 4 -4 -22 -35 -58 -69 -36 -33 -176
-171 -310 -305 -134 -134 -244 -242 -244 -239 0 2 -56 -52 -125 -122 -69 -69
-125 -129 -125 -133 0 -8 156 -167 164 -167 2 0 189 -184 414 -410 225 -225
412 -406 416 -403 3 4 6 2 6 -4 0 -13 148 -161 155 -155 3 3 5 0 5 -6 0 -7 14
-25 31 -40 17 -15 60 -57 96 -95 36 -37 73 -67 81 -67 20 0 16 -4 517 495 249
248 537 534 641 636 104 102 195 193 202 202 12 14 7 23 -39 72 -30 30 -57 55
-60 55 -4 0 -46 40 -95 90 -49 49 -95 90 -101 90 -7 0 -13 4 -13 9 0 12 -58
71 -70 71 -6 0 -10 6 -10 13 0 6 -27 38 -59 70 -33 32 -68 77 -80 102 -22 46
-105 138 -158 174 -18 12 -33 20 -33 17 0 -12 -174 153 -471 447 l-170 168
-89 -90z"/>
</g>
</svg>
